# xmcd CD database file
#
# Track frame offsets:
#	150
#	10915
#	20092
#	28917
#	40142
#	50857
#	60075
#	70865
#	79007
#	89177
#	100227
#	112560
#	123292
#	134367
#	143097
#	154620
#	162937
#	174895
#	187012
#	201912
#	212840
#	222667
#	231510
#	240757
#	252145
#	262697
#	272747
#	283527
#	294712
#	303750
#	315887
#	328530
#
# Disc length: 4556 seconds
#
# Revision: 1
# Processed by: cddbd v1.5.2PL0 Copyright (c) Steve Scherf et al.
# Submitted via: CDex 1.51
#
DISCID=c111ca20
DTITLE=Moon Mullican - Moon's Rock
DYEAR=1992
DGENRE=50's
TTITLE0=Moon's Rock
TTITLE1=Jenny Lee
TTITLE2=Pipeliner Blues
TTITLE3=Sweet Rockin' Music
TTITLE4=That's Me
TTITLE5=Cush Cush Ky-Yay
TTITLE6=The Writin' On The Wall
TTITLE7=The Wedding Of The Bugs
TTITLE8=Nobody Knows But My Pillow
TTITLE9=My Love
TTITLE10=I'm Waiting For Ships That Never Come In
TTITLE11=You Don't Have To Be A Baby To Cry
TTITLE12=I'll Sail My Ship Alone
TTITLE13=I Was Sorta Wonderin'
TTITLE14=Every Which-A Way
TTITLE15=I Don't Know Why (I Just Do)
TTITLE16=Sweeter Than The Flowers
TTITLE17=The Leaves Mustn't Fall
TTITLE18=Anything That's Part Of You
TTITLE19=Early Morning Blues
TTITLE20=My Baby's Gone
TTITLE21=Colinda
TTITLE22=Make Friends
TTITLE23=The Cajun Coffee Song
TTITLE24=Quarter Mile Rows
TTITLE25=Just To Be With You
TTITLE26=I'll Pour The Wine
TTITLE27=Fools Like Me
TTITLE28=Big Big City
TTITLE29=Mr. Tears
TTITLE30=She Once Lived Here
TTITLE31=This Glas I Hold
EXTD=YEAR: 1992
EXTT0=
EXTT1=
EXTT2=
EXTT3=
EXTT4=
EXTT5=
EXTT6=
EXTT7=
EXTT8=
EXTT9=
EXTT10=
EXTT11=
EXTT12=
EXTT13=
EXTT14=
EXTT15=
EXTT16=
EXTT17=
EXTT18=
EXTT19=
EXTT20=
EXTT21=
EXTT22=
EXTT23=
EXTT24=
EXTT25=
EXTT26=
EXTT27=
EXTT28=
EXTT29=
EXTT30=
EXTT31=
PLAYORDER=
